<svg version="1.1" xmlns="http://www.w3.org/2000/svg" style="display: block;" viewBox="685 190 660 690" preserveAspectRatio="xMidYMid meet">
<defs>
	<linearGradient id="Gradient1" gradientUnits="userSpaceOnUse" x1="1010.53" y1="312.273" x2="999.72" y2="352.231">
		<stop class="stop0" offset="0" stop-opacity="1" stop-color="rgb(8,8,7)"/>
		<stop class="stop1" offset="1" stop-opacity="1" stop-color="rgb(43,45,48)"/>
	</linearGradient>
	<linearGradient id="Gradient2" gradientUnits="userSpaceOnUse" x1="1032.99" y1="310.834" x2="981.389" y2="313.053">
		<stop class="stop0" offset="0" stop-opacity="1" stop-color="rgb(145,148,152)"/>
		<stop class="stop1" offset="1" stop-opacity="1" stop-color="rgb(177,178,181)"/>
	</linearGradient>
	<linearGradient id="Gradient3" gradientUnits="userSpaceOnUse" x1="1271.41" y1="505.929" x2="1167.27" y2="432.528">
		<stop class="stop0" offset="0" stop-opacity="1" stop-color="rgb(55,39,28)"/>
		<stop class="stop1" offset="1" stop-opacity="1" stop-color="rgb(87,62,45)"/>
	</linearGradient>
	<linearGradient id="Gradient4" gradientUnits="userSpaceOnUse" x1="1147.01" y1="391.806" x2="1284.79" y2="563.316">
		<stop class="stop0" offset="0" stop-opacity="1" stop-color="rgb(51,36,27)"/>
		<stop class="stop1" offset="1" stop-opacity="1" stop-color="rgb(33,35,38)"/>
	</linearGradient>
	<linearGradient id="Gradient5" gradientUnits="userSpaceOnUse" x1="1035.37" y1="540.436" x2="1099.36" y2="567.877">
		<stop class="stop0" offset="0" stop-opacity="1" stop-color="rgb(30,30,29)"/>
		<stop class="stop1" offset="1" stop-opacity="1" stop-color="rgb(55,55,57)"/>
	</linearGradient>
</defs>
<path transform="translate(0,0)" fill="rgb(51,54,56)" d="M 952.51 348.143 L 954.239 342.988 C 959.764 338.67 963.904 341.174 969.357 344.543 L 971.638 346.543 C 975.511 351.68 978.699 355.54 981.492 361.384 C 996.66 364.049 1011.36 368.931 1026.89 370.644 C 1031.62 367.745 1035.7 364.047 1039.92 360.45 C 1042.74 370.421 1049.19 383 1061.54 382.191 L 1060.54 384.365 L 1059.75 385.069 C 1061.79 392.156 1062.91 395.717 1061.48 403.107 L 1060.37 422.649 C 1062.99 429.226 1061.29 434.361 1063.17 440.206 C 1065.39 445.203 1065.7 446.76 1066.73 452.185 C 1069 457.221 1071.59 462.23 1073.79 467.182 C 1074.08 458.018 1075.25 452.045 1086.41 451.603 C 1099.8 451.073 1091.71 465.34 1090.31 473.789 C 1093.19 477.44 1096.79 481.743 1099.46 485.456 C 1097.13 488.052 1097.33 487.361 1093.43 488.408 L 1095.54 489.619 C 1092.72 499.412 1083.14 503.901 1082.88 511.611 C 1086.08 516.142 1094.52 511.275 1098.94 509.457 C 1095.44 517.533 1093.98 523.906 1091.18 531.921 C 1087.88 527.599 1083.32 524.422 1078.61 528.219 C 1069.15 535.827 1083.44 544.335 1086.3 547.845 L 1086.11 548.752 C 1081.59 570.516 1083.13 644.752 1057.72 650.751 C 1064.75 679.886 1074.75 701.914 1087.25 728.764 C 1088.7 731.88 1089.93 741.301 1090.83 745.245 L 1075.34 743.924 C 1068.44 743.101 1047.08 739.025 1042.57 739.484 L 1041.64 742.163 L 1041.23 744.404 C 1037.59 746.685 1002.19 747.06 999.199 744.499 L 998.771 738.758 C 993.34 738.155 986.056 737.906 980.465 737.56 C 981.091 733.07 981.982 728.269 982.727 723.765 L 982.861 718.874 C 972.743 714.132 947.033 698.788 937.225 692.71 L 927.013 689.288 L 913.702 713.97 C 908.51 721.426 906.308 724.052 899.74 730.403 C 879.353 747.664 861.934 740.634 849.239 761.335 C 834.486 785.394 823.854 829.875 818.157 857.979 C 817.529 861.077 820.188 874.624 820.828 878.095 L 788.937 878.104 C 790.454 854.498 794.778 841.79 800.394 819.108 C 806.173 795.77 811.512 771.627 815.988 747.98 C 817.296 741.07 811.963 727.217 813.853 721.644 C 816.785 712.994 835.424 711.043 846.174 704.79 C 846.24 685.213 840.677 653.693 837.402 633.862 C 836.633 630.947 836.755 618.391 837.348 615.108 C 842.424 587.027 845.864 573.064 868.03 555.435 C 861.855 553.281 853.298 552.518 846.332 550.728 C 832.909 536.624 808.179 531.669 788.458 524.019 C 781.976 534.448 781.543 536.804 767.962 549.133 C 759.353 556.95 729.586 560.963 716.543 556.372 C 717.328 556.649 713.211 544.564 711.03 541.27 C 703.684 531.699 692.755 523.823 689.467 511.712 C 687.431 504.212 686.508 495.54 685.428 487.779 C 701.141 480.673 717.684 470.435 733.36 464.951 C 751.521 458.963 771.009 458.85 789.566 454.646 C 801.689 452.123 812.161 444.203 823.431 439.673 C 841.919 432.242 858.93 424.725 876.489 415.276 C 876.147 413.585 874.35 409.62 873.605 407.843 L 867.969 399.824 C 862.805 392.351 851.826 377.028 848.976 369.447 C 858.98 370.972 867.142 364.765 871.112 356.022 C 877.516 365.557 883.799 371.108 892.217 378.997 L 897.955 382.417 C 898.736 382.895 902.492 385.269 903.064 385.487 C 906.326 384.233 911.631 381.188 914.883 379.45 C 915.973 377.951 918.551 375.312 919.904 373.836 C 931.189 356.753 932.362 354.802 952.51 348.143 z"/>
<path transform="translate(0,0)" fill="rgb(31,34,36)" d="M 952.51 348.143 L 954.239 342.988 C 959.764 338.67 963.904 341.174 969.357 344.543 L 971.638 346.543 C 975.511 351.68 978.699 355.54 981.492 361.384 C 996.66 364.049 1011.36 368.931 1026.89 370.644 C 1031.62 367.745 1035.7 364.047 1039.92 360.45 C 1042.74 370.421 1049.19 383 1061.54 382.191 L 1060.54 384.365 L 1059.75 385.069 C 1061.79 392.156 1062.91 395.717 1061.48 403.107 L 1060.37 422.649 C 1062.99 429.226 1061.29 434.361 1063.17 440.206 C 1065.39 445.203 1065.7 446.76 1066.73 452.185 L 1065.14 454.486 C 1061.8 454.926 1057.5 454.197 1054.15 453.55 C 1029.18 448.722 1009.68 449.444 987.611 463.184 C 976.782 484.881 977.72 542.558 948.376 548.208 C 946.144 544.515 949.569 528.293 950.439 522.978 L 936.68 523.788 C 900.701 529.185 897.45 533.932 868.03 555.435 C 861.855 553.281 853.298 552.518 846.332 550.728 C 832.909 536.624 808.179 531.669 788.458 524.019 C 781.976 534.448 781.543 536.804 767.962 549.133 C 759.353 556.95 729.586 560.963 716.543 556.372 C 717.328 556.649 713.211 544.564 711.03 541.27 C 703.684 531.699 692.755 523.823 689.467 511.712 C 687.431 504.212 686.508 495.54 685.428 487.779 C 701.141 480.673 717.684 470.435 733.36 464.951 C 751.521 458.963 771.009 458.85 789.566 454.646 C 801.689 452.123 812.161 444.203 823.431 439.673 C 841.919 432.242 858.93 424.725 876.489 415.276 C 876.147 413.585 874.35 409.62 873.605 407.843 L 867.969 399.824 C 862.805 392.351 851.826 377.028 848.976 369.447 C 858.98 370.972 867.142 364.765 871.112 356.022 C 877.516 365.557 883.799 371.108 892.217 378.997 L 897.955 382.417 C 898.736 382.895 902.492 385.269 903.064 385.487 C 906.326 384.233 911.631 381.188 914.883 379.45 C 915.973 377.951 918.551 375.312 919.904 373.836 C 931.189 356.753 932.362 354.802 952.51 348.143 z"/>
<path transform="translate(0,0)" fill="rgb(51,54,56)" d="M 876.489 415.276 C 881.437 421.871 883.671 420.704 891.601 421.004 C 881.014 429.76 864.726 443.312 853.01 449.182 C 810.755 470.351 777.533 499.37 740.237 527.449 C 733.647 532.41 714.953 537.586 711.03 541.27 C 703.684 531.699 692.755 523.823 689.467 511.712 C 687.431 504.212 686.508 495.54 685.428 487.779 C 701.141 480.673 717.684 470.435 733.36 464.951 C 751.521 458.963 771.009 458.85 789.566 454.646 C 801.689 452.123 812.161 444.203 823.431 439.673 C 841.919 432.242 858.93 424.725 876.489 415.276 z"/>
<path transform="translate(0,0)" fill="rgb(51,54,56)" d="M 1039.92 360.45 C 1042.74 370.421 1049.19 383 1061.54 382.191 L 1060.54 384.365 L 1059.75 385.069 C 1061.79 392.156 1062.91 395.717 1061.48 403.107 L 1060.37 422.649 C 1062.99 429.226 1061.29 434.361 1063.17 440.206 C 1031.94 436.575 1012.85 432.258 985.661 450.727 C 980.56 442.808 968.296 428.528 961.564 418.972 C 977.731 416.828 984.045 406.328 987.488 390.418 C 988.181 387.217 987.213 374.973 985.173 372.366 C 984.105 367.874 983.242 365.689 981.492 361.384 C 996.66 364.049 1011.36 368.931 1026.89 370.644 C 1031.62 367.745 1035.7 364.047 1039.92 360.45 z"/>
<path transform="translate(0,0)" fill="rgb(152,118,73)" d="M 1048.99 415.761 L 1046.15 416.493 C 1044.52 420.704 1051.84 429.754 1046.54 436.272 C 1041.43 432.395 1040.78 423.245 1037.38 417.341 C 1034.44 417.768 1034 417.842 1031.13 417.134 C 1030.9 414.529 1032.98 414.005 1035.46 410.533 L 1034.52 409.277 C 1031.95 410.281 1031.19 410.673 1028.45 410.856 L 1027.57 409.703 C 1029.28 408.52 1030.94 407.278 1032.57 405.979 L 1032.06 405.087 C 1030.86 405.504 1029.65 405.901 1028.43 406.28 C 1021.78 408.334 1017.27 408.173 1015.08 400.791 C 1018.55 399.237 1021.03 403.176 1026 401.681 L 1026.76 400.195 C 1021.04 396.847 1015.49 398.445 1014.11 391.576 C 1014.82 388.664 1014.99 388.363 1017.32 386.477 C 1021.78 385.886 1020.87 389.809 1027 393.018 L 1028.37 392.087 C 1025.52 388.544 1022.9 386.777 1022.09 382.939 C 1024.28 380.313 1025.9 377.785 1027.78 374.95 C 1031.6 377.612 1035.09 379.32 1038.64 382.555 C 1038.54 385.425 1038.3 387.719 1037.98 390.541 L 1039.29 391.841 C 1043.06 390.353 1039.47 388.824 1043.78 385.58 C 1047.07 385.714 1049.25 388.249 1051.75 390.482 C 1060.35 394.788 1058.17 394.287 1061.48 403.107 L 1060.37 422.649 L 1059.7 423.044 C 1056.86 425.697 1057.79 425.627 1054.49 426.059 C 1052.53 424.428 1051.97 420.811 1050.51 417.723 L 1050.21 417.109 L 1048.99 415.761 z"/>
<path transform="translate(0,0)" fill="rgb(80,57,42)" d="M 1051.75 390.482 C 1060.35 394.788 1058.17 394.287 1061.48 403.107 L 1060.37 422.649 L 1059.7 423.044 C 1056.86 425.697 1057.79 425.627 1054.49 426.059 C 1052.53 424.428 1051.97 420.811 1050.51 417.723 L 1050.21 417.109 L 1048.99 415.761 C 1049.43 411.793 1044.27 407.327 1040.9 402.958 C 1046.05 406.044 1047.83 407.954 1053.64 407.312 C 1057.99 404.421 1058.85 398.965 1056.74 394.366 C 1053.46 395.318 1052.52 400.652 1048.2 401.812 L 1045.84 399.836 C 1045.25 395.756 1047.91 399.161 1051.75 390.482 z"/>
<path transform="translate(0,0)" fill="rgb(136,110,77)" d="M 1050.21 417.109 L 1054.92 413.07 C 1056.54 414.494 1055.7 417.066 1056.24 418.996 C 1056.24 418.996 1059.42 422.71 1059.7 423.044 C 1056.86 425.697 1057.79 425.627 1054.49 426.059 C 1052.53 424.428 1051.97 420.811 1050.51 417.723 L 1050.21 417.109 z"/>
<path transform="translate(0,0)" fill="rgb(152,118,73)" d="M 999.208 398.996 C 1001.51 400.399 1003.3 401.094 1004.41 403.455 C 1003.16 405.362 1001.56 405.617 999.343 406.43 L 998.664 407.991 C 1001.82 412.546 1002.07 412.444 1007.59 412.47 C 1012.61 417.415 1006.48 416.768 1010.53 422.038 L 1012.51 422.743 C 1017 418.861 1014.8 418.222 1018.79 418.251 C 1023.2 422.478 1019.7 423.176 1024.8 427.003 L 1026.86 426.909 C 1026.9 424.611 1026.43 422.044 1027.69 420.817 C 1030.49 422.058 1030.74 422.46 1032.6 424.927 C 1032.34 435.886 995.486 425.626 996.296 411.149 C 996.142 406.301 995.734 402.702 999.208 398.996 z"/>
<path transform="translate(0,0)" fill="rgb(152,118,73)" d="M 997.591 389.117 C 999.409 384.178 997.716 374.238 999.849 373.132 L 1002.51 376.782 C 1008.33 376.012 1005.7 372.118 1011.04 372.537 C 1013.47 375.464 1012.97 374.169 1013.52 377.534 C 1009.17 382.938 1003.2 385.194 1001.21 387.706 L 999.658 389.423 L 997.591 389.117 z"/>
<path transform="translate(0,0)" fill="rgb(136,110,77)" d="M 997.591 389.117 L 999.658 389.423 L 1001.21 387.706 L 1003.37 391.6 C 1001.63 396.998 998.436 395.765 999.208 398.996 C 995.734 402.702 996.142 406.301 996.296 411.149 L 995.193 411.859 L 993.892 411.064 C 993.482 408.373 996.159 391.737 997.591 389.117 z"/>
<path transform="translate(0,0)" fill="rgb(96,100,102)" d="M 952.51 348.143 L 954.239 342.988 C 959.764 338.67 963.904 341.174 969.357 344.543 L 971.638 346.543 C 975.511 351.68 978.699 355.54 981.492 361.384 C 983.242 365.689 984.105 367.874 985.173 372.366 C 974.916 382.438 969.924 379.616 957.102 376.165 C 950.774 379.408 947.536 381.967 941.871 386.223 C 932.792 384.334 924.155 381.307 914.883 379.45 C 915.973 377.951 918.551 375.312 919.904 373.836 C 931.189 356.753 932.362 354.802 952.51 348.143 z"/>
<path transform="translate(0,0)" fill="rgb(152,118,73)" d="M 952.51 348.143 L 954.239 342.988 C 959.764 338.67 963.904 341.174 969.357 344.543 L 971.638 346.543 C 975.511 351.68 978.699 355.54 981.492 361.384 C 983.242 365.689 984.105 367.874 985.173 372.366 C 974.916 382.438 969.924 379.616 957.102 376.165 C 950.774 379.408 947.536 381.967 941.871 386.223 C 932.792 384.334 924.155 381.307 914.883 379.45 C 915.973 377.951 918.551 375.312 919.904 373.836 C 924.39 375.773 936.84 378.991 942.083 380.48 C 946.728 376.01 950.445 373.841 956.353 371.457 C 963.627 372.922 976.365 377.202 978.565 367.236 C 976.312 356.773 962.869 348.792 952.51 348.143 z"/>
<path transform="translate(0,0)" fill="rgb(109,113,118)" d="M 848.976 369.447 C 858.98 370.972 867.142 364.765 871.112 356.022 C 877.516 365.557 883.799 371.108 892.217 378.997 C 888.993 393.891 882.818 397.63 867.969 399.824 C 862.805 392.351 851.826 377.028 848.976 369.447 z"/>
<path transform="translate(0,0)" fill="rgb(96,100,102)" d="M 892.217 378.997 L 897.955 382.417 C 898.736 382.895 902.492 385.269 903.064 385.487 C 906.807 401.173 903.326 409.835 891.601 421.004 C 883.671 420.704 881.437 421.871 876.489 415.276 C 876.147 413.585 874.35 409.62 873.605 407.843 L 867.969 399.824 C 882.818 397.63 888.993 393.891 892.217 378.997 z"/>
<path transform="translate(0,0)" fill="rgb(31,34,36)" d="M 892.217 378.997 L 897.955 382.417 C 898.019 393.862 893.838 408.928 879.661 408.53 C 877.628 408.461 875.603 408.231 873.605 407.843 L 867.969 399.824 C 882.818 397.63 888.993 393.891 892.217 378.997 z"/>
<path transform="translate(0,0)" fill="rgb(96,100,102)" d="M 914.883 379.45 C 924.155 381.307 932.792 384.334 941.871 386.223 C 936.48 390.24 929.062 393.901 922.995 397.127 C 915.983 391.073 912.254 387.42 903.064 385.487 C 906.326 384.233 911.631 381.188 914.883 379.45 z"/>
<path transform="translate(0,0)" fill="rgb(80,57,42)" d="M 868.03 555.435 C 897.45 533.932 900.701 529.185 936.68 523.788 C 932.795 543.798 920.129 633.747 926.398 648.699 C 931.767 655.119 978.439 653.1 988.291 653.09 C 988.103 664.515 988.005 675.074 986.88 686.469 C 985.921 696.178 982.806 709.536 982.861 718.874 C 972.743 714.132 947.033 698.788 937.225 692.71 L 927.013 689.288 L 913.702 713.97 C 908.51 721.426 906.308 724.052 899.74 730.403 C 879.353 747.664 861.934 740.634 849.239 761.335 C 834.486 785.394 823.854 829.875 818.157 857.979 C 817.529 861.077 820.188 874.624 820.828 878.095 L 788.937 878.104 C 790.454 854.498 794.778 841.79 800.394 819.108 C 806.173 795.77 811.512 771.627 815.988 747.98 C 817.296 741.07 811.963 727.217 813.853 721.644 C 816.785 712.994 835.424 711.043 846.174 704.79 C 846.24 685.213 840.677 653.693 837.402 633.862 C 836.633 630.947 836.755 618.391 837.348 615.108 C 842.424 587.027 845.864 573.064 868.03 555.435 z"/>
<path transform="translate(0,0)" fill="url(#Gradient5)" d="M 1073.79 467.182 C 1074.08 458.018 1075.25 452.045 1086.41 451.603 C 1099.8 451.073 1091.71 465.34 1090.31 473.789 C 1093.19 477.44 1096.79 481.743 1099.46 485.456 C 1097.13 488.052 1097.33 487.361 1093.43 488.408 L 1095.54 489.619 C 1092.72 499.412 1083.14 503.901 1082.88 511.611 C 1086.08 516.142 1094.52 511.275 1098.94 509.457 C 1095.44 517.533 1093.98 523.906 1091.18 531.921 C 1087.88 527.599 1083.32 524.422 1078.61 528.219 C 1069.15 535.827 1083.44 544.335 1086.3 547.845 L 1086.11 548.752 C 1081.59 570.516 1083.13 644.752 1057.72 650.751 C 1049.12 652.133 1044.19 652.785 1035.46 653.203 C 1036.05 643.215 1043.81 612.082 1041.69 608.148 C 1052.29 595.635 1053.5 578.015 1047.27 563.203 C 1046.25 536.786 1046.66 511.317 1059.08 486.453 C 1062.01 480.58 1072.73 473.541 1073.79 467.182 z"/>
<path transform="translate(0,0)" fill="rgb(31,34,36)" d="M 1041.69 608.148 C 1043.81 612.082 1036.05 643.215 1035.46 653.203 C 1044.19 652.785 1049.12 652.133 1057.72 650.751 C 1064.75 679.886 1074.75 701.914 1087.25 728.764 C 1088.7 731.88 1089.93 741.301 1090.83 745.245 L 1075.34 743.924 C 1068.44 743.101 1047.08 739.025 1042.57 739.484 L 1041.64 742.163 L 1041.23 744.404 C 1037.59 746.685 1002.19 747.06 999.199 744.499 L 998.771 738.758 C 999.857 725.824 1006.35 706.106 1012.13 694.201 C 1013.32 691.749 1013.9 692.015 1016.07 691.498 C 1019 686.344 1029.94 638.282 1031.93 629.402 C 1036.5 621.746 1037 613.158 1041.69 608.148 z"/>
<path transform="translate(0,0)" fill="rgb(51,54,56)" d="M 998.771 738.758 C 999.857 725.824 1006.35 706.106 1012.13 694.201 C 1013.32 691.749 1013.9 692.015 1016.07 691.498 C 1020.88 691.983 1023.75 692.293 1028.55 692.069 C 1032.75 697.639 1034.92 708.856 1035.93 715.808 C 1045.87 719.827 1048.23 720.63 1055.5 728.931 C 1049.54 731.56 1043.46 734.248 1037.38 736.6 C 1035.02 737.512 1032.89 736.736 1031.21 737.501 C 1036.09 737.558 1037.36 736.775 1041.02 739.08 L 1041.64 742.163 L 1041.23 744.404 C 1037.59 746.685 1002.19 747.06 999.199 744.499 L 998.771 738.758 z"/>
<path transform="translate(0,0)" fill="rgb(160,161,164)" d="M 998.771 738.758 C 999.857 725.824 1006.35 706.106 1012.13 694.201 C 1013.32 691.749 1013.9 692.015 1016.07 691.498 C 1020.88 691.983 1023.75 692.293 1028.55 692.069 C 1032.75 697.639 1034.92 708.856 1035.93 715.808 C 1033.77 714.842 1031.28 714.156 1029.69 712.401 C 1026.47 708.855 1024.67 696.847 1018.53 698.501 C 1012.88 705.547 1008.99 728.617 1008.56 737.988 C 1015.67 737.871 1024.22 737.95 1031.21 737.501 C 1036.09 737.558 1037.36 736.775 1041.02 739.08 L 1041.64 742.163 L 1041.23 744.404 C 1037.59 746.685 1002.19 747.06 999.199 744.499 L 998.771 738.758 z"/>
<path transform="translate(0,0)" fill="rgb(80,57,42)" d="M 1028.55 692.069 C 1029.59 681.551 1033.01 668.632 1033.64 659.628 C 1042.96 692.959 1051.49 718.386 1075.34 743.924 C 1068.44 743.101 1047.08 739.025 1042.57 739.484 L 1041.64 742.163 L 1041.02 739.08 C 1037.36 736.775 1036.09 737.558 1031.21 737.501 C 1032.89 736.736 1035.02 737.512 1037.38 736.6 C 1043.46 734.248 1049.54 731.56 1055.5 728.931 C 1048.23 720.63 1045.87 719.827 1035.93 715.808 C 1034.92 708.856 1032.75 697.639 1028.55 692.069 z"/>
<path transform="translate(0,0)" fill="rgb(96,100,102)" d="M 999.881 572.573 C 1014.26 563.07 1021.35 558.154 1037.93 553.902 C 1041.05 556.559 1044.38 560.206 1047.27 563.203 C 1053.5 578.015 1052.29 595.635 1041.69 608.148 C 1037 613.158 1036.5 621.746 1031.93 629.402 C 1021.93 628.847 1005.68 613.74 1000.66 605.219 C 1007.89 594.164 998.439 579.507 999.881 572.573 z"/>
<path transform="translate(0,0)" fill="rgb(31,34,36)" d="M 989.163 539.078 C 991.522 548.487 998.797 565.783 999.881 572.573 C 998.439 579.507 1007.89 594.164 1000.66 605.219 C 997.039 611.081 994.818 618.227 992.61 624.745 C 979.622 619.87 973.153 614.958 966.273 602.98 C 965.741 588.855 968.565 573.041 968 559.094 C 967.857 555.573 956.235 555.811 951.262 553.177 C 952.778 547.105 973.419 547.266 979.439 544.537 C 983.915 542.508 985.054 541.769 989.163 539.078 z"/>
<path transform="translate(0,0)" fill="rgb(80,57,42)" d="M 1098.94 509.457 C 1109.21 503.641 1114.66 500.612 1122.85 491.862 C 1139.53 512.141 1153.35 528.567 1175.36 543.918 C 1183.55 549.631 1191.93 554.007 1199.69 559.245 C 1210.94 563.32 1218.97 565.87 1230.6 568.633 L 1237.85 569.646 C 1240.05 583.921 1245 585.789 1247.84 595.466 C 1252.99 608.094 1257.69 620.005 1255.35 633.732 C 1253.35 661.735 1246.55 677.693 1230.93 700.048 C 1231.37 710.657 1232.76 731.016 1230.89 740.828 C 1226.79 762.272 1217.42 782.76 1213.9 804.918 C 1211.85 817.876 1215.61 832.912 1214.51 844.137 C 1213.16 858.023 1209.74 861.981 1210.75 877.915 L 1182.04 877.916 C 1181.27 866.766 1174.57 852.028 1174.68 844.92 C 1175.25 810.23 1174.13 776.437 1170.27 741.902 L 1148.96 747.36 C 1144.13 780.988 1139.83 805.875 1145.83 839.59 C 1146.8 845.08 1142.31 869.007 1142.26 878 L 1115.56 878.028 C 1113.14 869.243 1108.13 859.964 1106.66 851.83 C 1104.84 841.733 1105.01 823.162 1104.19 813.674 C 1103.46 805.261 1092.68 747.645 1090.83 745.245 C 1089.93 741.301 1088.7 731.88 1087.25 728.764 C 1074.75 701.914 1064.75 679.886 1057.72 650.751 C 1083.13 644.752 1081.59 570.516 1086.11 548.752 L 1086.3 547.845 C 1083.44 544.335 1069.15 535.827 1078.61 528.219 C 1083.32 524.422 1087.88 527.599 1091.18 531.921 C 1093.98 523.906 1095.44 517.533 1098.94 509.457 z"/>
<path transform="translate(0,0)" fill="rgb(80,57,42)" d="M 1098.94 509.457 C 1109.21 503.641 1114.66 500.612 1122.85 491.862 C 1139.53 512.141 1153.35 528.567 1175.36 543.918 C 1183.55 549.631 1191.93 554.007 1199.69 559.245 C 1210.94 563.32 1218.97 565.87 1230.6 568.633 L 1237.85 569.646 C 1240.05 583.921 1245 585.789 1247.84 595.466 C 1244.79 602.377 1241.53 609.503 1236.48 615.197 C 1232.38 619.808 1226.45 623.151 1220.16 623.152 C 1207.9 623.154 1105.09 545.639 1091.18 531.921 C 1093.98 523.906 1095.44 517.533 1098.94 509.457 z"/>
<path transform="translate(0,0)" fill="rgb(50,35,26)" d="M 1199.69 559.245 C 1210.94 563.32 1218.97 565.87 1230.6 568.633 C 1227.75 581.497 1222.6 597.783 1218.85 610.756 C 1209.99 594.939 1200.64 577.719 1199.69 559.245 z"/>
<path transform="translate(0,0)" fill="rgb(31,34,36)" d="M 1086.3 547.845 C 1083.44 544.335 1069.15 535.827 1078.61 528.219 C 1083.32 524.422 1087.88 527.599 1091.18 531.921 C 1105.09 545.639 1207.9 623.154 1220.16 623.152 C 1226.45 623.151 1232.38 619.808 1236.48 615.197 C 1241.53 609.503 1244.79 602.377 1247.84 595.466 C 1252.99 608.094 1257.69 620.005 1255.35 633.732 C 1249.86 637.852 1243.9 650.555 1239.76 656.825 C 1236.58 661.654 1227.25 672.396 1225.3 676.768 C 1211.58 707.53 1207.44 729.536 1172.73 742.098 C 1193.24 719.499 1201.77 704.118 1210.95 674.617 C 1191.3 649.321 1176.29 636.441 1153.75 614.411 C 1131.12 592.374 1108.63 570.185 1086.3 547.845 z"/>
<path transform="translate(0,0)" fill="url(#Gradient4)" d="M 1249.52 336.31 C 1253.07 333.545 1252.42 333.177 1256.28 332.76 C 1259.96 338.028 1256.83 349.604 1260.78 353.469 C 1275.36 356.027 1306.69 359.836 1312.01 375.841 C 1312.79 383.758 1320.82 389.816 1325.87 396.605 C 1328.6 400.407 1331.48 404.607 1334.31 408.291 C 1331 407.846 1325.08 406.871 1321.94 406.768 L 1323.17 409.889 L 1326.36 421.303 C 1328.94 432.13 1338.55 443.53 1339.44 451.424 C 1341.12 466.369 1321.62 483.928 1328.94 518.048 C 1332.46 522.185 1332.5 523.794 1332.06 529.324 L 1331.98 530.229 C 1330.04 538.033 1334.53 559.814 1338.83 566.985 C 1339.72 568.473 1340.69 569.919 1341.72 571.318 C 1338.64 589.261 1327.95 614.836 1304.19 609.014 C 1297.78 607.444 1287.52 606.642 1283.17 601.472 C 1279.66 596.602 1275.07 572.673 1271.29 570.801 L 1263.83 567.656 C 1254.14 569.187 1247.74 570.355 1237.85 569.646 L 1230.6 568.633 C 1218.97 565.87 1210.94 563.32 1199.69 559.245 C 1191.93 554.007 1183.55 549.631 1175.36 543.918 C 1153.35 528.567 1139.53 512.141 1122.85 491.862 C 1114.66 500.612 1109.21 503.641 1098.94 509.457 C 1094.52 511.275 1086.08 516.142 1082.88 511.611 C 1083.14 503.901 1092.72 499.412 1095.54 489.619 L 1093.43 488.408 C 1097.33 487.361 1097.13 488.052 1099.46 485.456 C 1101.09 483.588 1101.47 483.422 1101.66 481.085 C 1100.14 478.742 1095.65 477.67 1092.76 476.654 C 1098.19 473.122 1100.9 471.038 1105.85 466.905 C 1099.4 456.827 1093.94 446.15 1089.55 435.022 C 1098.03 435.577 1094.43 438.248 1098.03 440.091 C 1100.31 445.36 1106.76 458.354 1112.16 459.929 C 1115.07 453.466 1102.65 443.892 1098.03 440.091 C 1098.37 438.129 1098.5 438.145 1099.6 436.576 L 1103.76 435.876 L 1115.63 449.261 L 1115.93 448.699 C 1120.89 439.439 1122.19 437.266 1130.6 430.677 L 1116.01 429.74 C 1123.94 424.351 1129.5 420.801 1136.08 413.718 C 1138.68 411.706 1146.8 401.082 1148.96 400.017 C 1162.58 393.324 1176.08 381.057 1187.8 373.199 C 1199.19 365.564 1225.88 358.271 1239.56 356.4 C 1242.23 347.006 1243.66 343.748 1249.52 336.31 z M 1295.39 443.791 C 1313.13 469.222 1309.6 474.067 1320.43 500.054 C 1323.44 477.406 1319.96 465.993 1326 441.23 C 1321.17 433.454 1318.16 428.677 1315.23 419.842 L 1300.83 418.804 C 1300.21 429.109 1298.97 434.026 1295.39 443.791 z M 1259.7 549.848 C 1260.29 548.9 1260.56 547.861 1260.93 546.785 C 1257.82 542.278 1246.88 526.969 1242.59 525.155 C 1241.54 529.86 1238.93 538.262 1241.07 541.902 L 1241.9 542.35 C 1248.52 545.658 1252.54 547.86 1259.7 549.848 z M 1260 560.386 L 1259.72 558.385 L 1239.29 548.757 L 1238.46 548.967 C 1238.1 553.559 1237.86 557.644 1237.75 562.248 C 1245.51 562.58 1252.49 562.673 1260 560.386 z"/>
<path transform="translate(0,0)" fill="rgb(31,34,36)" d="M 1241.9 542.35 C 1248.52 545.658 1252.54 547.86 1259.7 549.848 L 1261.73 550.422 C 1261.83 554.008 1261.11 555.184 1259.72 558.385 L 1239.29 548.757 L 1241.9 542.35 z"/>
<path transform="translate(0,0)" fill="url(#Gradient3)" d="M 1128.6 486.352 C 1150.33 458.197 1169.41 419.227 1199.26 401.588 C 1210.28 395.076 1229.03 388.194 1241.27 383.397 C 1241.1 383.768 1240.93 384.142 1240.76 384.518 C 1232.88 402.701 1235.01 415.163 1230.44 432.143 C 1225.3 447.708 1217.4 462.377 1213.49 478.387 C 1211.59 486.157 1211.95 492.875 1220.27 496.289 C 1223.65 501.492 1224.27 507.044 1228.62 512.07 C 1232.1 516.087 1240.43 520.824 1242.59 525.155 C 1241.54 529.86 1238.93 538.262 1241.07 541.902 L 1241.9 542.35 L 1239.29 548.757 L 1238.46 548.967 C 1238.1 553.559 1237.86 557.644 1237.75 562.248 C 1200.47 563.869 1148.22 514.692 1128.6 486.352 z"/>
<path transform="translate(0,0)" fill="rgb(80,57,42)" d="M 1241.04 425.905 C 1257.43 417.81 1282.91 416.891 1300.83 418.804 C 1300.21 429.109 1298.97 434.026 1295.39 443.791 C 1313.13 469.222 1309.6 474.067 1320.43 500.054 C 1323.44 477.406 1319.96 465.993 1326 441.23 C 1321.17 433.454 1318.16 428.677 1315.23 419.842 L 1326.36 421.303 C 1328.94 432.13 1338.55 443.53 1339.44 451.424 C 1341.12 466.369 1321.62 483.928 1328.94 518.048 C 1306.65 517.011 1284.8 524.542 1267.88 539.096 C 1254.67 508.982 1240.35 457.876 1241.04 425.905 z"/>
<path transform="translate(0,0)" fill="rgb(80,57,42)" d="M 1271.82 547.168 C 1272.72 546.862 1281.08 542.131 1282.75 541.234 C 1297.92 533.068 1314.35 526.075 1331.98 530.229 C 1330.04 538.033 1334.53 559.814 1338.83 566.985 C 1339.72 568.473 1340.69 569.919 1341.72 571.318 C 1338.64 589.261 1327.95 614.836 1304.19 609.014 C 1297.78 607.444 1287.52 606.642 1283.17 601.472 C 1279.66 596.602 1275.07 572.673 1271.29 570.801 L 1263.83 567.656 C 1263.4 563.912 1262.54 562.795 1260 560.386 L 1259.72 558.385 C 1261.11 555.184 1261.83 554.008 1261.73 550.422 C 1265.52 546.826 1266.89 546.844 1271.82 547.168 z"/>
<path transform="translate(0,0)" fill="rgb(160,161,164)" d="M 1261.73 550.422 C 1265.52 546.826 1266.89 546.844 1271.82 547.168 C 1279.95 554.669 1281.47 564.231 1271.29 570.801 L 1263.83 567.656 C 1263.4 563.912 1262.54 562.795 1260 560.386 L 1259.72 558.385 C 1261.11 555.184 1261.83 554.008 1261.73 550.422 z"/>
<path transform="translate(0,0)" fill="rgb(50,35,26)" d="M 1305.19 573.553 C 1306.63 573.596 1307.86 573.978 1309.26 574.325 C 1315.25 581.499 1317.67 589.91 1311.84 597.79 C 1300.46 593.762 1293.74 582.12 1305.19 573.553 z"/>
<path transform="translate(0,0)" fill="rgb(50,35,26)" d="M 1260.78 353.469 C 1275.36 356.027 1306.69 359.836 1312.01 375.841 C 1312.79 383.758 1320.82 389.816 1325.87 396.605 C 1328.6 400.407 1331.48 404.607 1334.31 408.291 C 1331 407.846 1325.08 406.871 1321.94 406.768 L 1323.17 409.889 C 1306.21 408.524 1289.2 407.941 1272.19 408.143 C 1271.81 405.825 1271.85 405.508 1270.7 403.515 L 1267.46 403.275 C 1282.53 385.987 1263.39 370.266 1260.78 353.469 z"/>
<path transform="translate(0,0)" fill="rgb(80,57,42)" d="M 1272.19 408.143 C 1278.74 402.017 1282.04 398.898 1286.55 391.228 C 1300.32 399.849 1306.29 402.864 1321.94 406.768 L 1323.17 409.889 C 1306.21 408.524 1289.2 407.941 1272.19 408.143 z"/>
<path transform="translate(0,0)" fill="rgb(80,57,42)" d="M 1232.58 449.184 C 1236.53 469.399 1239.85 487.01 1246.76 506.519 C 1249.33 513.767 1261.06 541.878 1260.93 546.785 C 1257.82 542.278 1246.88 526.969 1242.59 525.155 C 1240.43 520.824 1232.1 516.087 1228.62 512.07 C 1224.27 507.044 1223.65 501.492 1220.27 496.289 C 1219.23 480.951 1226.18 462.833 1232.58 449.184 z"/>
<path transform="translate(0,0)" fill="rgb(80,57,42)" d="M 1249.52 336.31 C 1253.07 333.545 1252.42 333.177 1256.28 332.76 C 1259.96 338.028 1256.83 349.604 1260.78 353.469 C 1263.39 370.266 1282.53 385.987 1267.46 403.275 C 1259.52 410.448 1251.83 411.516 1241.55 414.469 L 1245.93 386.039 C 1247.7 388.025 1251.69 393.242 1253.71 393.594 C 1262.02 385.47 1255.75 344.815 1249.52 336.31 z"/>
<path transform="translate(0,0)" fill="rgb(50,35,26)" d="M 846.332 550.728 C 853.298 552.518 861.855 553.281 868.03 555.435 C 845.864 573.064 842.424 587.027 837.348 615.108 C 836.755 618.391 836.633 630.947 837.402 633.862 C 826.239 673.82 811.128 704.93 772.368 724.24 C 750.182 735.293 729.019 735.748 704.901 738.347 C 717.461 729.839 729.457 720.525 740.811 710.464 C 723.373 718.377 712.436 720.763 694.108 724.624 C 713.828 710.04 739.385 696.591 756.785 680.758 C 784.806 655.259 764.625 611.495 792.284 582.249 C 809.272 564.286 820.546 553.776 846.332 550.728 z"/>
<path transform="translate(0,0)" fill="rgb(50,35,26)" d="M 937.225 692.71 C 947.033 698.788 972.743 714.132 982.861 718.874 L 982.727 723.765 C 961.713 745.465 958.846 741.279 935.553 753.998 C 933.062 781.281 930.992 808.602 929.344 835.949 C 928.556 847.684 926.747 866.557 926.782 877.903 L 894.618 877.91 C 895.968 872.678 899.947 857.118 900.074 852.694 C 900.881 824.588 905.916 754.859 899.74 730.403 C 906.308 724.052 908.51 721.426 913.702 713.97 C 923.771 708.177 930.055 701.59 937.225 692.71 z"/>
<path transform="translate(0,0)" fill="url(#Gradient2)" d="M 978.855 333.481 L 976.746 332.449 C 978.293 312.274 969.767 281.925 996.697 271.552 C 1002.33 269.38 1010.84 269.173 1016.44 271.829 C 1031.69 284.056 1033.14 292.762 1035.56 311.611 C 1035.74 313.03 1035.63 313.262 1035.17 314.591 C 1033.74 322.042 1029.83 338.723 1031.86 345.372 C 1033.88 346.639 1033.97 346.713 1036.29 347.125 L 1033.48 348.14 C 1037.39 352.849 1037.74 354.766 1039.92 360.45 C 1035.7 364.047 1031.62 367.745 1026.89 370.644 C 1011.36 368.931 996.66 364.049 981.492 361.384 C 978.699 355.54 975.511 351.68 971.638 346.543 L 969.357 344.543 C 974.351 341.138 976.716 339.155 978.855 333.481 z"/>
<path transform="translate(0,0)" fill="url(#Gradient1)" d="M 1024.33 319.798 C 1018.87 318.953 1002.76 316.762 999.497 312.769 C 1005.03 311.967 1021.98 315.683 1034.36 314.997 L 1035.17 314.591 C 1033.74 322.042 1029.83 338.723 1031.86 345.372 C 1033.88 346.639 1033.97 346.713 1036.29 347.125 L 1033.48 348.14 C 1037.39 352.849 1037.74 354.766 1039.92 360.45 C 1035.7 364.047 1031.62 367.745 1026.89 370.644 C 1011.36 368.931 996.66 364.049 981.492 361.384 C 978.699 355.54 975.511 351.68 971.638 346.543 L 969.357 344.543 C 974.351 341.138 976.716 339.155 978.855 333.481 C 982.539 331.195 984.218 331.433 988.251 331.759 C 994.509 338.689 1012.95 347.626 1021.24 351.542 C 1022.15 340.984 1023.28 330.351 1024.33 319.798 z"/>
<path transform="translate(0,0)" fill="rgb(109,113,118)" d="M 971.638 346.543 C 983.466 349.915 1008.76 356.692 1020.31 357.523 C 1025.09 355.22 1027.12 354.491 1030.79 350.747 C 1030.97 350.205 1031.57 348.57 1031.59 348.115 L 1033.48 348.14 C 1037.39 352.849 1037.74 354.766 1039.92 360.45 C 1035.7 364.047 1031.62 367.745 1026.89 370.644 C 1011.36 368.931 996.66 364.049 981.492 361.384 C 978.699 355.54 975.511 351.68 971.638 346.543 z"/>
<path transform="translate(0,0)" fill="rgb(109,113,118)" d="M 1034.36 314.997 L 1035.17 314.591 C 1033.74 322.042 1029.83 338.723 1031.86 345.372 C 1033.88 346.639 1033.97 346.713 1036.29 347.125 L 1033.48 348.14 L 1031.59 348.115 C 1029.67 348.618 1027.75 349.109 1025.82 349.587 C 1023.29 341.729 1027.59 321.361 1034.36 314.997 z"/>
<path transform="translate(0,0)" fill="rgb(96,100,102)" d="M 978.855 333.481 L 976.746 332.449 C 978.293 312.274 969.767 281.925 996.697 271.552 C 1002.33 269.38 1010.84 269.173 1016.44 271.829 C 1014.89 282.744 1012.72 283.449 1004.84 290.531 C 998.976 295.804 983.796 300.502 980.691 303.764 C 981.12 309.289 986.665 322.329 988.251 331.759 C 984.218 331.433 982.539 331.195 978.855 333.481 z"/>
<path transform="translate(0,0)" fill="rgb(31,34,36)" d="M 991.151 302.402 C 997.801 302.263 1015.46 300.186 1021.12 303.325 C 1022.23 303.941 1022.01 307.331 1022.12 309.133 C 1013.45 307.976 1002.85 308.245 994.184 305.844 C 991.793 305.182 991.992 304.493 991.151 302.402 z"/>
<path transform="translate(0,0)" fill="rgb(31,34,36)" d="M 1017.38 322.613 L 1019.03 324.543 C 1019.41 330.001 1018.16 337.36 1017.43 342.936 L 1015.87 341.216 C 1015.15 335.434 1016.16 328.283 1017.38 322.613 z"/>
<path transform="translate(0,0)" fill="rgb(31,34,36)" d="M 1010.5 321.707 L 1011.95 323.527 C 1012.49 328.739 1011.21 334.364 1010.32 339.581 L 1008.56 337.75 C 1008.22 332.671 1009.58 326.796 1010.5 321.707 z"/>
<path transform="translate(0,0)" fill="rgb(51,54,56)" d="M 1061.54 382.191 C 1068.11 381.245 1074.48 385.975 1083 385.793 L 1089.52 391.271 C 1093.97 392.719 1098.58 395.668 1102.42 398.375 C 1121.12 406.68 1125.81 418.555 1108.68 432.556 L 1108.2 432.945 C 1106.65 434.108 1105.54 435.066 1103.76 435.876 L 1099.6 436.576 C 1098.5 438.145 1098.37 438.129 1098.03 440.091 C 1094.43 438.248 1098.03 435.577 1089.55 435.022 C 1080.89 434.35 1077 428.373 1069.96 424.06 L 1069.15 423.571 C 1065.42 422.778 1064.18 422.731 1060.37 422.649 L 1061.48 403.107 C 1062.91 395.717 1061.79 392.156 1059.75 385.069 L 1060.54 384.365 L 1061.54 382.191 z"/>
<path transform="translate(0,0)" fill="rgb(31,34,36)" d="M 1061.54 382.191 C 1068.11 381.245 1074.48 385.975 1083 385.793 L 1089.52 391.271 C 1093.97 392.719 1098.58 395.668 1102.42 398.375 C 1093.89 401.432 1090.06 402.667 1085.16 410.904 C 1083.4 413.658 1081.56 416.669 1079.73 419.347 C 1077.35 420.39 1071.35 423.209 1069.15 423.571 C 1065.42 422.778 1064.18 422.731 1060.37 422.649 L 1061.48 403.107 C 1062.91 395.717 1061.79 392.156 1059.75 385.069 L 1060.54 384.365 L 1061.54 382.191 z"/>
<path transform="translate(0,0)" fill="rgb(96,100,102)" d="M 1061.54 382.191 C 1068.11 381.245 1074.48 385.975 1083 385.793 L 1089.52 391.271 C 1086.56 392.862 1080.59 394.579 1077.18 395.67 C 1068.91 392.579 1066.82 390.613 1060.54 384.365 L 1061.54 382.191 z"/>
<path transform="translate(0,0)" fill="rgb(109,113,118)" d="M 1102.42 398.375 C 1121.12 406.68 1125.81 418.555 1108.68 432.556 L 1108.2 432.945 C 1110.6 415.277 1101.65 408.692 1085.16 410.904 C 1090.06 402.667 1093.89 401.432 1102.42 398.375 z"/>
<path transform="translate(0,0)" fill="rgb(160,161,164)" d="M 989.514 193.008 C 983.976 207.375 954.347 240.642 943.096 254.22 L 875.156 335.927 C 873.189 331.693 869.643 329.217 865.859 326.806 C 877.634 314.331 888.439 300.984 899.743 288.072 L 946.36 235.849 C 958.131 222.569 974.275 200.64 989.514 193.008 z"/>
<path transform="translate(0,0)" fill="rgb(51,54,56)" d="M 858.374 331.291 C 863.87 334.399 868.374 338.509 872.355 343.397 C 872.151 346.944 872.04 352.808 871.112 356.022 C 867.142 364.765 858.98 370.972 848.976 369.447 L 846.939 366.111 C 842.93 366.95 840.486 370.992 837.472 374.492 C 835.636 372.95 832.852 369.905 831.077 368.065 C 834.636 364.511 837.696 361.67 840.574 357.489 C 839.674 355.533 838.813 353.558 837.994 351.566 C 839.007 343.574 850.688 333.216 858.374 331.291 z"/>
<path transform="translate(0,0)" fill="rgb(96,100,102)" d="M 1033.48 348.14 L 1036.29 347.125 C 1039.05 349.166 1041.58 350.955 1044.11 353.302 C 1062.23 359.595 1065.49 362.612 1076.69 378.828 L 1083 385.793 C 1074.48 385.975 1068.11 381.245 1061.54 382.191 C 1049.19 383 1042.74 370.421 1039.92 360.45 C 1037.74 354.766 1037.39 352.849 1033.48 348.14 z"/>
<path transform="translate(0,0)" fill="rgb(152,118,73)" d="M 1033.48 348.14 L 1036.29 347.125 C 1039.05 349.166 1041.58 350.955 1044.11 353.302 C 1050.85 380.96 1052.67 373.621 1076.69 378.828 L 1083 385.793 C 1074.48 385.975 1068.11 381.245 1061.54 382.191 C 1049.19 383 1042.74 370.421 1039.92 360.45 C 1037.74 354.766 1037.39 352.849 1033.48 348.14 z"/>
<path transform="translate(0,0)" fill="rgb(80,57,42)" d="M 1312.01 375.841 C 1332.99 362.009 1332.88 370.74 1351.88 347.336 C 1347.1 369.712 1340.4 379.063 1325.87 396.605 C 1320.82 389.816 1312.79 383.758 1312.01 375.841 z"/>
<path transform="translate(0,0)" fill="rgb(96,100,102)" d="M 858.374 331.291 C 855.269 329.075 850.107 322.154 850.686 317.909 L 852.485 316.746 C 857.661 317.941 860.386 326.384 865.859 326.806 C 869.643 329.217 873.189 331.693 875.156 335.927 C 878.203 341.576 884.185 342.282 886.04 346.986 C 882.711 351.619 875.878 345.836 872.355 343.397 C 868.374 338.509 863.87 334.399 858.374 331.291 z"/>
<path transform="translate(0,0)" fill="rgb(109,113,118)" d="M 837.472 374.492 C 835.451 379.025 835.351 379.257 831.56 381.325 C 827.617 381.151 829.138 381.662 825.844 379.265 C 823.122 372.619 825.024 370.668 831.077 368.065 C 832.852 369.905 835.636 372.95 837.472 374.492 z"/>
</svg>